<?xml version="1.0" standalone="no"?>
<!DOCTYPE svg PUBLIC "-//W3C//DTD SVG 20010904//EN"
 "http://www.w3.org/TR/2001/REC-SVG-20010904/DTD/svg10.dtd">
<svg version="1.0" xmlns="http://www.w3.org/2000/svg"
 width="467.000000pt" height="442.000000pt" viewBox="0 0 467.000000 442.000000"
 preserveAspectRatio="xMidYMid meet">

<g transform="translate(0.000000,442.000000) scale(0.100000,-0.100000)"
fill="#000000" stroke="none">
<path d="M235 4185 l-25 -24 0 -1606 c0 -1424 2 -1610 15 -1643 19 -43 596
-629 664 -673 l45 -29 368 0 c310 0 375 2 406 15 24 11 127 106 297 275 l260
260 70 0 70 0 245 -246 c135 -135 265 -259 289 -275 l45 -29 370 0 c342 0 374
2 411 19 55 26 659 632 680 683 13 33 15 222 15 1643 l0 1606 -25 24 -24 25
-576 0 -576 0 -24 -25 -25 -24 0 -1251 0 -1250 -125 0 -125 0 0 1250 0 1251
-25 24 -24 25 -576 0 -576 0 -24 -25 -25 -24 0 -1251 0 -1250 -125 0 -125 0 0
1250 0 1251 -25 24 -24 25 -576 0 -576 0 -24 -25z"/>
</g>
</svg>
